PathFileType	4	(X/Y/Z)	Patient4_TMGait_0pt5_02_left_33.trc.trc
DataRate	CameraRate	NumFrames	NumMarkers	Units	OrigDataRate	OrigDataStartFrame	OrigNumFrames
80.924855491330	80.924855491330	5	33	mm	80.924855491330	89	       141
Frame#	Time	Sacral			L.Shoulder			Chest			R.Shoulder			Neck			R.ASIS			L.ASIS			R.Thigh.Superior			R.Thigh.Lateral			R.Thigh.Inferior			R.Patella			L.Thigh.Superior			L.Thigh.Lateral			L.Thigh.Inferior			L.Patella			L.Shank.Superior			L.Shank.Lateral			L.Shank.Inferior			R.Shank.Superior			R.Shank.Lateral			R.Shank.Inferior			R.Heel			R.Midfoot.Superior			R.Midfoot.Lateral			R.Toe			L.Heel			L.Midfoot.Lateral			L.Midfoot.Superior			L.Toe			L.Elbow			L.Wrist			R.Elbow			R.Wrist			
		X1	Y1	Z1	X2	Y2	Z2	X3	Y3	Z3	X4	Y4	Z4	X5	Y5	Z5	X6	Y6	Z6	X7	Y7	Z7	X8	Y8	Z8	X9	Y9	Z9	X10	Y10	Z10	X11	Y11	Z11	X12	Y12	Z12	X13	Y13	Z13	X14	Y14	Z14	X15	Y15	Z15	X16	Y16	Z16	X17	Y17	Z17	X18	Y18	Z18	X19	Y19	Z19	X20	Y20	Z20	X21	Y21	Z21	X22	Y22	Z22	X23	Y23	Z23	X24	Y24	Z24	X25	Y25	Z25	X26	Y26	Z26	X27	Y27	Z27	X28	Y28	Z28	X29	Y29	Z29	X30	Y30	Z30	X31	Y31	Z31	X32	Y32	Z32	X33	Y33	Z33	

89	43.607428571429	744.422660903350	1006.860291520543	491.151064385756	947.330942706655	1436.345833674212	336.752357953841	1030.315759151232	1359.021802494078	505.281489881241	929.322481412827	1429.808545775449	672.016818320874	931.191174772909	1492.314446839293	490.033326279881	962.697142051149	939.798207796425	624.854103981406	966.902028718024	956.457554591249	351.168557184884	1023.699503940887	749.159565045661	592.705094402608	951.845433765357	634.607593423912	649.042122950169	1035.219046983490	589.048398590740	569.791336118739	1045.762723419121	499.484225835343	575.674756141183	998.799090631023	735.674927604772	379.828449986136	911.538640382332	624.228130537644	311.164857386644	989.886346163996	537.914507748467	375.059961041124	980.696813804461	453.945507216077	374.609243861760	916.331806201448	395.210569313729	367.180082972132	783.644674078105	341.034984795007	310.432498095954	771.482848391721	215.988396089702	372.390053018539	1021.334285567177	409.947474449643	581.815293980882	956.018427987665	303.361653496642	644.301297146646	1000.814568030628	210.126525993578	580.609869296738	871.593803562050	44.391336539144	553.727934837600	1043.927483361201	97.895002683329	584.605917258287	956.854668793794	37.527563700433	625.983560860616	1164.900187024121	42.351530426799	609.284017892565	582.854721030814	134.311304070750	401.496328252581	649.838047013618	94.434135159647	326.848374246377	750.108920756945	115.985205511792	353.719397466697	842.190185202101	33.038523024404	335.488643159448	969.972450295494	1097.072099866157	186.226434685979	1204.789270234368	986.106655561035	193.921242826876	854.723553541972	1083.163239468270	769.266033368382	958.619985704848	843.320885247302	770.904819872682	
90	43.619785714286	744.701839242916	1007.485019133925	494.046691760393	946.821106472402	1436.896585461738	338.386180129164	1030.732302915804	1359.694670060358	506.528175012937	930.645412456453	1430.538794072461	673.696297917848	931.326037301366	1492.925019078868	491.760476587702	963.481356432735	940.498729370269	626.632209512976	966.710109365251	956.804448172864	352.790375499429	1022.652429014859	748.324328285347	595.402841169658	949.225834269384	634.611187488561	651.130241198828	1032.338444451234	588.376912297002	571.930584998258	1041.888647575724	498.876220925095	577.405614054914	1003.038049672736	738.307781887675	381.782260939363	919.736990681400	624.894992675828	312.089867130780	1000.871290835629	540.162306165368	375.460575233783	992.701954456897	455.046859554091	374.297479112329	926.561917421087	396.422626847942	367.058164050995	791.768339557270	346.945816787007	310.806425970404	776.272087627022	221.842382988310	371.961977112020	1017.085257445419	409.575965582210	583.273853969575	951.156277545098	303.170301991919	645.314567664695	995.472675197686	209.914443262937	581.307314444685	865.525389842421	44.411340181802	553.867297989586	1037.810114165517	97.897941425646	584.893270271341	950.756609877055	37.482426103072	626.128417189314	1158.826749716843	42.134727765112	609.559311193051	584.869290974999	149.347777948792	400.796482989473	649.645585774087	105.385420544287	326.397307782862	751.100456603672	120.834106161732	353.427425768656	837.149539616818	32.030049617088	335.833305585175	966.982383538823	1095.825241853755	190.933163912512	1197.305018574863	974.478178765142	197.451582335164	862.453322622795	1083.413851374294	774.372797147749	979.031527839811	849.680973678263	776.143760384004	
91	43.632142857143	744.776876598445	1007.994631202835	496.852276655219	946.118454888544	1437.231267263282	339.840842779424	1031.036465381603	1360.211725618904	507.587152576318	931.913792671262	1431.159675533527	675.226555737748	931.351521083850	1493.390119435998	493.292760540124	964.050015453017	941.043940295778	628.375340218575	966.484895177201	956.983985749221	354.356814503983	1021.442487832246	747.448053565067	598.174399874688	946.491597083072	634.562485729583	653.223750836724	1029.411001363790	587.678995722297	574.128642622137	1037.943511612861	498.242286260442	579.205283255651	1007.131173133921	741.008698096428	383.650054255789	927.796129851490	625.828173702771	312.873787028345	1011.570469094349	542.797914747731	375.828517623542	1004.579553235055	456.618172227733	374.085644195228	936.868091251291	397.989499965373	366.943524056142	800.267381690438	352.995235770237	311.027783418857	781.525965519107	227.953729965667	371.546229179653	1012.769343031959	409.160330730699	584.780201844446	946.186083877569	302.932355424602	646.328503963208	990.076475573026	209.665297713102	582.037538344192	859.401293724328	44.426826816099	554.003061546993	1031.663947660827	97.842731811503	585.184266466458	944.598146835813	37.431675377228	626.279036303800	1152.698479279864	41.900118125171	609.815233516146	587.809512467808	164.390545216259	399.978667757487	650.391295569165	116.667429943234	325.843271454570	752.708831806668	126.204663264940	353.164421713891	832.809175397334	31.143274148944	336.097576942116	963.830514855144	1094.386588845166	195.461292204578	1188.845662203311	962.350291660695	200.755731888240	870.300230975986	1083.777515291870	779.456660605759	999.560441885924	857.020847810936	781.078753607532	
92	43.644500000000	744.647454936094	1008.419497830851	499.538315458220	945.257941155959	1437.372818650274	341.120923733320	1031.231867200415	1360.590533266849	508.472868968146	933.118918550392	1431.699458228949	676.610118656198	931.302631798251	1493.737034452112	494.624951760289	964.408865796008	941.459003773587	630.095357106585	966.221274355157	957.065113646570	355.895735428469	1020.119355652275	746.590161356795	600.932678973598	943.714295505281	634.491938979000	655.270664979177	1026.490959710449	586.980626843903	576.324693172883	1033.988642192812	497.601884059189	581.011135647788	1010.993726630078	743.789569760978	385.415011696965	935.570239690801	627.078252279162	313.519670029742	1021.821350996213	545.841230026331	376.169997377844	1016.181814234980	458.683683025836	373.939110173709	947.116511080692	399.933497546272	366.820702239067	809.007082515882	359.068373281215	311.100677197598	787.227214168958	234.165644656489	371.130981522244	1008.438791989058	408.720310903245	586.279253595161	941.170484074922	302.678402410704	647.320456320516	984.657889871761	209.396768270040	582.773454926312	853.231701451200	44.447461768948	554.141568168918	1025.502230621449	97.750044310509	585.475902502571	938.393461156066	37.381710604956	626.435021433689	1146.528383485009	41.658844286252	610.051304173998	591.670189608657	178.900171197103	399.099234184152	652.170275272356	127.860604640895	325.209371711777	755.052254414048	131.932526996726	352.890438602329	829.526930678058	30.506552326082	336.202399019196	960.531773278389	1092.789922496803	199.802437047312	1179.336761545481	949.832653414105	203.826834075260	878.315984159687	1084.250719256776	784.420518278468	1020.086280819876	865.322583695922	785.646777243927	
93	43.656857142857	744.321399958463	1008.800567297573	502.090152760241	944.278629727551	1437.359910196100	342.236358944477	1031.325443413916	1360.861819411802	509.202776513384	934.257978181283	1432.197128861661	677.851565076627	931.214337330692	1494.002604984712	495.757792339370	964.573158321487	941.779130292395	631.794843229785	965.885803008846	957.127088576116	357.433876348120	1018.714015445962	745.795771500528	603.592987342804	940.927410082460	634.424862371308	657.220156927849	1023.590388447931	586.301658887822	578.456820903707	1030.045642212981	496.974159039394	582.755748665129	1014.555384475835	746.672686830195	387.073984194277	942.947723945257	628.686684611782	314.028932101366	1031.506764902313	549.300306960158	376.478614324723	1027.390571668509	461.257247001832	373.804049792788	957.209259616663	402.262123683440	366.658690267404	817.874900641347	365.024494337949	311.039667240578	793.405634560003	240.284309366247	370.700767263446	1004.113181531212	408.277991748737	587.717604840289	936.143549543294	302.436833658207	648.266476648874	979.233484561530	209.128962979332	583.489694762477	847.028986387855	44.480479261110	554.286819581775	1019.335934460719	97.642073717347	585.766083636859	932.158173538532	37.337562046070	626.594445100698	1140.329674074123	41.424570468338	610.269596070528	596.463838814893	192.287326480506	398.227703216689	655.098263712574	138.488770045704	324.524264815934	758.299856786525	137.785611967326	352.561647213714	827.730683941985	30.241932360507	336.062771733203	957.090724045448	1091.089364187418	203.958446274193	1168.708967126425	937.066358924547	206.662562986868	886.542538056573	1084.845009198696	789.171498485637	1040.501214975967	874.569589874638	789.783724960964	
